<svg xmlns="http://www.w3.org/2000/svg" data-name="Слой 1" viewBox="0 0 100 125" x="0px" y="0px"><title>apple</title><g><path d="M51.08476,94.80783c-1.91746.1963-3.84536,0.32189-5.7502,0.60356-4.04028.59732-7.91066-.49094-11.81779-1.12827C26.38834,93.1203,22.06829,88.16821,21.0541,80.99956a51.06213,51.06213,0,0,1-.59617-7.41069c0.03447-6.00777.9352-11.84879,4.39056-16.97973a16.92139,16.92139,0,0,1,10.58972-7.56864,9.81659,9.81659,0,0,1,8.39031,1.92433,13.69845,13.69845,0,0,0,2.17716,1.5912q-0.49541-2.14624-.99038-4.29258A68.70176,68.70176,0,0,0,40.4261,35.29232c-1.39376-3.08067-2.65875-6.22-4.07859-9.28812a8.24673,8.24673,0,0,0-1.70673-2.19792c-0.90547-.9133-1.04105-1.4147-0.07662-2.14541a2.08627,2.08627,0,0,0,1.08934-2.0821A0.891,0.891,0,0,1,36.036,18.8821a1.36288,1.36288,0,0,1,.9391.38687,27.285,27.285,0,0,1,2.54761,3.598c1.54972,2.89477,2.99482,5.84822,4.4,8.81683,1.182,2.4971,2.24752,5.0493,3.45881,7.79028,0-2.79314.00419-5.39074-.0009-7.98831A22.9469,22.9469,0,0,1,51.203,17.95631,49.57948,49.57948,0,0,1,62.73171,6.40846c1.55865-1.16075,2.88033-2.6372,4.33587-3.94087A7.44651,7.44651,0,0,1,68.23447,1.75l0.41917,0.25968c-0.139,1.04694-.26319,2.09613-0.42006,3.14038-0.31392,2.08974-.705,4.16968-0.95874,6.26641-0.69717,5.76-1.85308,11.42831-4.54767,16.58923a26.89031,26.89031,0,0,1-4.73434,5.94007c-1.69258,1.74667-3.80607,3.082-5.52964,4.80328a21.37523,21.37523,0,0,0-3.56995,4.99473c-0.97191,1.78126-.39469,3.25726-0.33357,4.86253,0.07888,2.07139.31149,4.13695,0.4784,6.21128,1.38135-1.28469,2.66585-2.67639,4.1446-3.816A14.972,14.972,0,0,1,65.9215,47.8244a11.15394,11.15394,0,0,1,5.02675,3.03029,23.4504,23.4504,0,0,1,4.35022,6.0594,35.57923,35.57923,0,0,1,3.613,9.85259,21.3859,21.3859,0,0,1-.26706,11.31117,31.71115,31.71115,0,0,1-5.14553,9.93974,10.432,10.432,0,0,1-4.59757,3.43094c-2.27671.90108-4.58756,1.72324-6.91217,2.49343a6.37139,6.37139,0,0,1-4.65816.18731l0.29867,1.67284-1.82679.11607a16.12813,16.12813,0,0,1-1.4019,2.19,1.24925,1.24925,0,0,1-1.225-.03966,1.29619,1.29619,0,0,0-1.68387-.29053,1.18294,1.18294,0,0,1-1.03245-.17844,1.42146,1.42146,0,0,1-.13757-1.12,12.109,12.109,0,0,1,.74092-1.69677,2.98565,2.98565,0,0,0,1.23322-.6274c1.74467-2.85145,4.44057-3.30529,7.38942-2.90627a9.47031,9.47031,0,0,0,6.06142-1.05947A14.62662,14.62662,0,0,0,72.23731,83.676a16.24006,16.24006,0,0,0,1.87394-7.00882,54.73925,54.73925,0,0,0,.01705-6.80042c-0.37874-3.1333-1.14774-6.22-1.76265-9.324a12.70205,12.70205,0,0,0-5.32621-7.88709c-3.19737-2.32727-6.87583-1.669-10.24184-.7248a12.72565,12.72565,0,0,0-6.19989,4.06627,4.5923,4.5923,0,0,0-1.11295,1.23622,13.0757,13.0757,0,0,0-.02874,2.14366,1.96049,1.96049,0,0,1-.48762,1.29433,3.2282,3.2282,0,0,1-1.43864.19295q-0.03471-.562-0.06952-1.12394-0.05119-.80807-0.10362-1.616a22.09587,22.09587,0,0,1-1.7656-1.69267,35.20214,35.20214,0,0,0-3.331-2.19641A8.1874,8.1874,0,0,0,35.78624,53.096a9.7812,9.7812,0,0,0-6.18782,4.87744,35.42085,35.42085,0,0,0-4.07332,19.27244,25.353,25.353,0,0,0,1.38307,6.41534,13.75067,13.75067,0,0,0,5.21457,6.57317c2.30346,1.66767,4.70463,3.31027,7.70048,3.27017,2.50938-.03358,5.01549-0.33652,7.52179-0.536a3.96982,3.96982,0,0,0,.7168-0.22659c1.18083-.33561,2.35549-0.69845,3.54934-0.97943a3.90006,3.90006,0,0,1,1.18435.09317,5.65445,5.65445,0,0,1-.424,1.24174C51.99692,93.7013,51.5191,94.24108,51.08476,94.80783ZM48.7526,36.85348l0.48685,0.169c2.75328-8.98193,8.37572-16.2866,13.40212-23.94183,1.24119,0.55011.87174,1.39919,0.51948,2.09432-1.62222,3.20122-3.25211,6.40068-4.97749,9.54689-1.86274,3.39667-3.85391,6.7227-5.74286,10.10534a15.669,15.669,0,0,0-.85176,2.26292,8.55289,8.55289,0,0,0,2.14943-1.2631A23.57991,23.57991,0,0,0,63.12756,23.72C65.192,17.67536,65.903,11.35751,66.64767,4.8567c-0.63145.48448-1.16514,0.877-1.68029,1.29245C63.54924,7.2929,62.18089,8.50309,60.71729,9.5848a32.51274,32.51274,0,0,0-9.47586,10.56911,18.64,18.64,0,0,0-1.88082,5.25584,57.54273,57.54273,0,0,0-.79137,7.39744A35.27505,35.27505,0,0,0,48.7526,36.85348ZM31.59271,91.97587a10.45679,10.45679,0,0,0-.82661-0.76975,14.45488,14.45488,0,0,1-5.33763-6.76565,33.06357,33.06357,0,0,1-1.51129-8.5971,34.51875,34.51875,0,0,1,.7336-7.57062,30.98649,30.98649,0,0,1,4.27163-11.94813,11.74709,11.74709,0,0,1,5.98691-4.50392,9.17019,9.17019,0,0,1,7.91153,1.18155c0.67685,0.41982,1.33235.87407,2.288,1.50389-1.197-2.79371-5.77407-5.23254-9.4293-4.2163a15.37879,15.37879,0,0,0-8.84046,5.69744,23.16779,23.16779,0,0,0-4.081,9.16523,37.53444,37.53444,0,0,0-.70793,11.78716c0.40719,3.44091.757,6.85766,2.64466,9.8534A10.55637,10.55637,0,0,0,31.59271,91.97587Zm41.8479-6.9231c2.64214-2.6689,3.44156-6.39088,4.26919-10.03494,0.92566-4.0757-.29329-8.07587-1.43328-11.88049-0.92634-3.0916-2.75579-5.95473-4.44276-8.76429a10.02689,10.02689,0,0,0-7.38964-5.12229,27.30309,27.30309,0,0,0-3.60049-.02538l0.01988,0.31415a20.23552,20.23552,0,0,1,3.74415.37947A12.46163,12.46163,0,0,1,73.637,58.89121C74.85771,63.351,76.16116,67.86847,75.846,72.6a59.99357,59.99357,0,0,1-.64963,7.0127A41.25738,41.25738,0,0,1,73.44061,85.05277ZM47.18937,51.14l0.33469-.09762c-1.11694-10.63321-4.15733-20.58291-10.51655-29.41177-1.01273.39526-1.32825,0.85227-.55867,1.70163a6.50191,6.50191,0,0,1,1.08144,1.54909c1.109,2.35474,2.19578,4.72111,3.23058,7.10925,1.06722,2.463,2.18289,4.91516,3.06246,7.44671,1.07614,3.09734,1.94043,6.26892,2.86959,9.41629C46.91313,49.59952,47.02673,50.377,47.18937,51.14Zm6.27786,44.82148,0.483,0.144,0.73419-1.82434L54.299,94.12648C53.83038,94.65492,52.83752,94.95538,53.46723,95.96144Z"/><path d="M60.2263,77.33664a7.42953,7.42953,0,0,1-1.49374-.98115,10.832,10.832,0,0,1-2.92537-5.50618c-0.22572-1.21194.54249-1.75191,1.13445-2.325,0.64144-.621,1.06885.20736,1.53045,0.6186a22.60712,22.60712,0,0,1,1.79268,1.4235,16.26538,16.26538,0,0,1,2.481,3.14079C63.63782,75.38658,62.45809,76.955,60.2263,77.33664Z"/><path d="M35.08253,77.41311c-0.08492-2.01825.9304-3.32568,2.1096-4.58916a6.12386,6.12386,0,0,0,1.01577-1.70169,3.35888,3.35888,0,0,1,3.03176-1.19236,1.55524,1.55524,0,0,1,.961,1.02319,3.19046,3.19046,0,0,1-.355,1.55323,10.86348,10.86348,0,0,1-2.78585,4.62086c-1.52863,1.34462-1.47225,1.40545-3.3983.47577A4.42439,4.42439,0,0,0,35.08253,77.41311Z"/><path d="M50.874,69.17834a13.95877,13.95877,0,0,1,.45813,2.39735,24.68108,24.68108,0,0,1-1.63093,9.0355,4.60879,4.60879,0,0,1-1.33464,1.3021c-0.55058-.62486-1.4242-1.17422-1.59117-1.88875a12.76129,12.76129,0,0,1,.07411-6.514c0.639-2.24864.92125-4.5974,1.40423-6.89293a5.23737,5.23737,0,0,1,.5935-1.19343l0.57395,0.22691a31.07045,31.07045,0,0,1-.79939,3.23975,28.01832,28.01832,0,0,0-1.33659,8.8527,3.3311,3.3311,0,0,0,1.167,2.99577c1.47722-3.77912,2.41514-7.49721,1.89837-11.50155Z"/></g><text x="0" y="115" fill="#000000" font-size="5px" font-weight="bold" font-family="'Helvetica Neue', Helvetica, Arial-Unicode, Arial, Sans-serif">Created by Tatyana</text><text x="0" y="120" fill="#000000" font-size="5px" font-weight="bold" font-family="'Helvetica Neue', Helvetica, Arial-Unicode, Arial, Sans-serif">from the Noun Project</text></svg>