<svg xmlns="http://www.w3.org/2000/svg" data-name="Слой 1" viewBox="0 0 100 125" x="0px" y="0px"><title>цветок 5</title><path d="M80.80066,49.9765c0.72394-2.16339,1.26215-4.38849,1.9679-6.55853,0.35535-1.0929.92694-2.114,1.3606-3.1839a2.6286,2.6286,0,0,0,.046-0.842,5.79927,5.79927,0,0,0-.79633.42444c-0.43292.321-.82227,0.70074-1.255,1.022a3.16923,3.16923,0,0,0-.85016.5058,10.76037,10.76037,0,0,1-4.05542,3.55737,55.83085,55.83085,0,0,0-5.59485,3.42163,43.57194,43.57194,0,0,0-4.19427,4.17181V49.55627l-0.34027-.20007c-2.49158,2.4845-5.55939,4.32751-7.87762,7.2536q-0.07938-1.60538-.15857-3.21082l-0.28577-.069C53.46051,60.262,47.8501,67.046,47.8371,76.55475a35.075,35.075,0,0,1-.51465-4.1546c-0.10236-1.62708-.23486-3.26227-0.17554-4.88739,0.10278-2.81458.33612-5.62469,0.528-8.43573,0.177-2.59308.34723-5.18719,0.5882-7.7746a1.32624,1.32624,0,0,1,.73248-0.90009c1.71252-.646,3.4986-1.10992,5.17664-1.82947a8.317,8.317,0,0,0,2.84442-1.91229l0.02148-.02356a4.15726,4.15726,0,0,1,1.47461-2.27515l-0.2868-.02991c0.34369-.27051.547-0.40485,0.72009-0.57074a28.89433,28.89433,0,0,0,3.72894-3.66534,52.56461,52.56461,0,0,1,8.34344-8.62482c1.70123-1.49664,2.07062-2.88184,1.00507-4.874a8.87675,8.87675,0,0,0-.59924-1.06421c-1.36322-1.87067-1.10614-3.72211-.23218-5.74146a9.52938,9.52938,0,0,0,.58032-3.65411,1.98925,1.98925,0,0,0-2.01819-2.12866c-0.99048-.1214-1.99719-0.10535-2.99243-0.19708a1.04935,1.04935,0,0,1-.73395-0.34106C65.95,12.63959,65.3053,12.556,64.73553,12.30609a1.55967,1.55967,0,0,1-.88281-0.67731c0.05884-1.10553-.67944-1.58032-1.51117-2.05829a4.391,4.391,0,0,1,5.15,2.23157c0.43134,0.96173,1.36334,1.23871,1.99554,1.9007a1.77818,1.77818,0,0,0,.29834-0.16,7.50221,7.50221,0,0,0-.85065-1.58148,24.94326,24.94326,0,0,0-2.53546-2.477A6.80256,6.80256,0,0,0,58.883,8.23511a5.81675,5.81675,0,0,1-6.399-.72668,4.0771,4.0771,0,0,0-2.38159-.59894,11.1776,11.1776,0,0,0-4.7453,1.31317,14.48358,14.48358,0,0,0-5.98358,5.19507,3.46811,3.46811,0,0,0-1.18585-1.02881,19.13453,19.13453,0,0,0-4.06873-.413,5.542,5.542,0,0,0-4.59344,1.95862A6.35048,6.35048,0,0,1,24.65308,16.707a4.479,4.479,0,0,0-2.16089.8512,8.03406,8.03406,0,0,0-3.60077,5.61292,5.91076,5.91076,0,0,1-1.86572,3.5708,5.64649,5.64649,0,0,0-.62714,5.98883,21.59814,21.59814,0,0,0,1.88458,2.80316,17.8559,17.8559,0,0,1,2.62946,4.6228,31.71045,31.71045,0,0,0,2.74493,5.00055,7.2186,7.2186,0,0,0,4.45764,2.75848c0.901,0.246,1.77905.65247,2.67877-.0708a1.02956,1.02956,0,0,1,.82855.19135c1.10034,0.75116,2.15662,1.5672,3.26184,2.31061a1.65515,1.65515,0,0,0,1.12189.35736,4.18524,4.18524,0,0,1,2.15894.30182,28.25154,28.25154,0,0,0,4.33331.65149,10.203,10.203,0,0,0,2.58331-.30267c1.1004-.20959,1.32874-0.05475,1.3302,1.09473,0.001,0.75439.01654,1.51-.01825,2.26306-0.17206,3.72614-.46466,7.45032-0.50775,11.17761-0.03613,3.12915.16016,6.26489,0.35352,9.39154a36.59319,36.59319,0,0,0,.70593,6.24017c0.88,3.67773,2.038,7.28894,3.0838,10.92688a0.637,0.637,0,0,0,.17084.32941,4.30013,4.30013,0,0,0,.58124.31329,1.68952,1.68952,0,0,0,.11462-0.56836,8.0802,8.0802,0,0,0-.2749-0.989l0.15326-.06763,0.46149,0.74023a2.22976,2.22976,0,0,0,.34979-0.24542,0.74557,0.74557,0,0,0,.19116-0.31732A12.48423,12.48423,0,0,1,55.307,85.9657a54.62067,54.62067,0,0,1,7.90991-6.888c3.02509-2.145,6.39557-3.8,9.5968-5.69989a22.4462,22.4462,0,0,0,6.4375-5.3783,19.25716,19.25716,0,0,0,1.66443-2.70813,1.11224,1.11224,0,0,0-.03-0.94678,1.04368,1.04368,0,0,0-.859-0.03534,7.53171,7.53171,0,0,1-3.99048-.02112,31.61739,31.61739,0,0,1,2.51917-2.449c2.5993-2.02277,3.82825-4.887,4.96991-7.81647a2.662,2.662,0,0,0,.053-0.792,3.74009,3.74009,0,0,0-.77863.0589c-1.30334.37555-2.59949,0.77594-3.89813,1.16779l-0.17383-.25159c0.196-.369.4021-0.73322,0.58624-1.10809A26.11331,26.11331,0,0,0,80.80066,49.9765ZM74.9754,46.73828c1.25793-.68921,2.54071-1.33307,3.811-1.993-2.38507,3.10883-4.79663,6.25214-7.20813,9.39551l-0.24963-.176c0.85449-2.12958,1.67908-4.27216,2.59174-6.37646A2.34249,2.34249,0,0,1,74.9754,46.73828ZM64.645,52.53638a0.628,0.628,0,0,1,.131-0.32629c0.59808-.57874,1.2085-1.14478,1.97266-1.86285-0.06708,1.07446-.1203,1.89771-0.16962,2.72119a18.88768,18.88768,0,0,1-1.438,5.68219,7.76348,7.76348,0,0,0-.40839,1.99677,1.572,1.572,0,0,0,.41425.677c0.65027-5.21643,4.19861-11.34247,7.90448-13.42377a51.74355,51.74355,0,0,0-2.45325,5.71558c-0.67273,2.25732-2.285,3.76868-3.653,5.49622-0.58978.74475-1.19141,1.4801-1.78772,2.21967-1.287,1.48724-2.57391,2.97467-4.05188,4.68292,0.36456-1.47919.6604-2.68652,0.95984-3.893,0.477-1.922.9306-3.85034,1.44745-5.76154,0.21021-.77734.5976-1.50543,0.83344-2.27759A14.83476,14.83476,0,0,0,64.645,52.53638Zm-5.27289,11.0639c0.33093-1.629.05109-3.37585,0.31451-5.02679a6.75126,6.75126,0,0,1,1.30872-2.903,27.14282,27.14282,0,0,1,2.86206-2.82678,0.98627,0.98627,0,0,1,.1795.19574c-1.79883,3.86792-2.14386,8.1449-3.3938,12.1748a29.53373,29.53373,0,0,1-3.5174,7.171C57.88989,69.46,58.77106,66.55859,59.37207,63.60028Zm-1.04523-8.75745c0.06458,1.50983.092,3.058,0.21765,4.59814a9.54078,9.54078,0,0,1,.46887,1.5769c-0.25452,1.8479-.60449,3.68732-1.017,5.50763-0.43427,1.91632-1.16223,3.78223-1.42853,5.71606a18.16085,18.16085,0,0,1-2.05994,5.38477c-0.91888,1.91846-1.73694,3.88531-2.59564,5.83252a4.35933,4.35933,0,0,1-.39978.80389c0.30475-2.37549.134-4.74921,0.83057-7.12158,1.405-4.78546,2.46313-9.67358,3.63049-14.52753a19.50817,19.50817,0,0,0,.895-4.76569C56.84106,56.38916,57.66382,55.6842,58.32684,54.84283Zm-7.84637-7.09326c-0.52753.44958-1.12347,0.81879-1.69543,1.21613l-0.23071-.2641a1.75333,1.75333,0,0,0,.25867-0.46405,1.41246,1.41246,0,0,0,.053-0.83313,1.96016,1.96016,0,0,0-1.11151-.29687,0.9006,0.9006,0,0,0-.37494.71979,1.17758,1.17758,0,0,1-1.16785,1.45178c0.07056-.55933.13574-1.07648,0.2149-1.70416,1.02618-1.51349,2.60907-.31824,3.95813-0.56781A1.529,1.529,0,0,1,50.48047,47.74957Zm1.02545,0.96472-0.06226-.2392q0.9592-.52231,1.91846-1.04462l0.1142,0.21375Zm-1.34265-3.21283a23.85774,23.85774,0,0,1-2.449.06256,0.46893,0.46893,0,0,0-.32709.13275c-0.86481,1.14813-2.05408.69928-3.2334,0.74994a0.79986,0.79986,0,0,1,.85669-0.99957,13.05589,13.05589,0,0,0,6.87921-2.19342,9.92878,9.92878,0,0,0,2.91394-4.08685c0.90625-1.80328,1.59045-3.71808,2.37683-5.58209a0.89206,0.89206,0,0,1,.22052-0.20819,1.805,1.805,0,0,1,.05365,1.94891c-0.812,1.623-1.57159,3.27271-2.32806,4.92273a3.60128,3.60128,0,0,0,.14252,3.18372c0.428,0.86487.03259,1.16534-.67224,1.30438C53.12561,45.02661,51.64886,45.30286,50.16327,45.50146Zm-17.329-7.37994a1.25678,1.25678,0,0,1-.92694,1.52216,1.8308,1.8308,0,0,1-2.15973-.88782,8.8855,8.8855,0,0,1-.53436-1.68329c-0.1897-.849-0.39038-1.74652-1.38068-1.90015a2.92809,2.92809,0,0,0-3.02417,1.03821c-0.06616.08881-.13641,0.17456-0.30011,0.38342a1.99354,1.99354,0,0,1,1.45422-1.93176c2.03168-.57184,4.10468-0.99994,6.16882-1.45056,0.54785-.11957.81909,0.14606,0.92584,0.7533,0.20428,1.16144.66144,2.29688-.131,3.42474A1.2278,1.2278,0,0,0,32.83429,38.12152Zm0.44757-5.61713c-0.39282-1.03064-.70892-2.09058-1.05133-3.1405l0.36383-.26361a5.24934,5.24934,0,0,1,1.20422,1.09,3.71432,3.71432,0,0,0,2.46521,1.86,0.84631,0.84631,0,0,1,.49365.20215c0.55872,0.99884,1.53564,1.10944,2.50934,1.3844a2.88821,2.88821,0,0,1,1.33014,1.42548c-0.80347-.33832-1.58734-0.73816-2.41479-1.00122-1.386-.44073-2.80206-0.78687-4.20013-1.19116A1.14993,1.14993,0,0,1,33.28186,32.50439Zm21.44147-8.73877c-2.98364,2.23071-5.3761,5.27661-9.09723,6.49408-0.79639.26056-1.53766,0.68713-2.33057,0.96161-1.66394.57611-3.05328,0.01367-4.45111-.95306a34.69934,34.69934,0,0,0-3.93671-2.10083c-0.43915-.226-0.89923-0.41138-1.3161-0.6001C41.15558,29.25269,48.05359,27.20752,54.72333,23.76563Zm-17.50153,3.837c4.30939-.795,8.9035-1.6424,13.31586-2.45636A33.02093,33.02093,0,0,1,37.2218,27.60266Zm19.19153-4.03082c0.33783-.366.613-0.789,0.93079-1.17444,0.29858-.36212.61505-0.70953,0.94513-1.08807A17.30771,17.30771,0,0,1,58.26978,23.12a1.33549,1.33549,0,0,1-.41846.75049,2.14267,2.14267,0,0,0-.78156,2.25269,2.89549,2.89549,0,0,1,.02191,1.20441c-0.2085,1.13354-.49957,1.32806-1.66858,1.22119-0.62012-.0567-1.23865-0.18243-1.85828-0.18481A2.81572,2.81572,0,0,0,50.73035,30.733a1.07476,1.07476,0,0,1-.5166.651A15.08871,15.08871,0,0,0,45.413,34.935a4.60641,4.60641,0,0,1-.688.63977c-0.92773.67786-1.19745,0.60437-1.66168-.4137a0.35185,0.35185,0,0,0-.04657-0.08167c-0.79639-.94312-1.59357-1.88556-2.53613-3.00024a5.14211,5.14211,0,0,0,3.65057-.30115A31.63874,31.63874,0,0,0,56.41333,23.57184Zm-1.52008-.871,1.926-1.74182L56.93,21.07953q-0.9722.89136-1.94446,1.78278Zm0.0658-9.45929a3.1771,3.1771,0,0,1,3.0813,2.73083C57.04028,15.08612,56.00769,14.171,54.959,13.24158Zm1.36786,3.09509c-3.07623-2.25769-6.4118-1.16034-9.662-1.01508l-0.015-.2879c1.9458-.1261,3.89075-0.27045,5.838-0.36884a15.67877,15.67877,0,0,1,2.21533.06171A1.57241,1.57241,0,0,1,56.3269,16.33667Zm1.58752,2.4978c-0.27844-.84686-0.57635-1.75317-0.85907-2.61322C57.68146,16.53473,57.92456,17.24957,57.91443,18.83447ZM51.59369,35.576c-0.4068.94067-.64,1.95551-1.02808,2.90564a1.527,1.527,0,0,1-.78223.92627,2.44994,2.44994,0,0,1-1.261-.5885,1.74779,1.74779,0,0,1-.374-0.64185c-1.02948-1.9342-1.82751-2.26666-3.93774-1.63855l-1.1825,1.0163c-0.0567-.2251-0.12018-0.47687-0.19952-0.79193,0.47748-.08258.9248-0.15991,1.37207-0.23724a15.16591,15.16591,0,0,0,1.8197-1.455,12.3952,12.3952,0,0,1,7.60938-4.05817,8.233,8.233,0,0,1,2.89142.53931,0.78837,0.78837,0,0,1,.25232.70038,20.647,20.647,0,0,1-.95306,2.42578,0.73077,0.73077,0,0,1-.68091.061C53.63037,33.52075,52.37018,33.78027,51.59369,35.576Zm3.366,0.11542c-0.9884,1.28137-1.47815-.80676-2.40771-0.1488C53.41284,34.36926,53.96558,34.42279,54.95972,35.69147Zm-6.64917,4.21735-2.747-2.93506C47.4751,36.71,47.34833,38.92883,48.31055,39.90881Zm4.06122-9.29449c0.7572-1.094.845-1.10272,2.05719-.24243C53.73425,30.45374,53.08673,30.53009,52.37177,30.61432Zm3.24457-.10413c0.61646-.15277,1.0705-0.26532,1.59937-0.39642-0.04395.27881-.08417,0.53351-0.14276,0.90509C56.59235,30.85107,56.18207,30.70776,55.61633,30.51019Zm-1.47943-1.3623c2.78723,0.06531,2.90643.02765,3.53851-1.09033A2.159,2.159,0,0,1,54.1369,29.14789Zm-14.57361,2.6203c-0.12665.36206-.26648,0.71948-0.40234,1.07831-0.34412-.234-0.68616-0.47113-1.03284-0.70123a7.6288,7.6288,0,0,0-1.62671-1.03448c-1.05542-.35309-1.72058-0.86139-1.43634-2.16394,1.48914,0.92651,2.93683,1.82727,4.49194,2.79486C39.52228,31.65649,39.57849,31.72485,39.56329,31.76819Zm-4.66321-4.41785-3.63519-1.62543,0.10229-.22424q1.8186,0.8107,3.63721,1.62146Zm2.51782,6.84106c1.37091,0.52179,2.67786,1.21265,4.00818,1.83942a2.0495,2.0495,0,0,1,.60272,3.038A3.90684,3.90684,0,0,1,40.512,40.18372c-1.29492.33875-2.35785-.55414-2.63281-2.01306a2.561,2.561,0,0,0-3.08337-2.18616c-0.629.10962-.86023-0.0108-0.926-0.63873C33.8,34.67889,33.642,34.0213,33.46826,33.05957,34.94031,33.472,36.21631,33.73407,37.41791,34.19141Zm0.088,4.74463c-0.77905-.68732-1.66895-1.47235-2.73175-2.41a5.55619,5.55619,0,0,1,2.03131.70734A4.17371,4.17371,0,0,1,37.50592,38.936Zm-2.79333-1.07465a0.7103,0.7103,0,0,1,.65784.10553A7.46236,7.46236,0,0,1,36.832,39.60907a3.00973,3.00973,0,0,0,4.9704.85547c0.34521-.30927.72644-0.57831,1.23712-0.98114a9.09463,9.09463,0,0,1,.58887,4.853,0.93788,0.93788,0,0,1-.71686.56622c-3.12354-.44421-5.82422-1.67908-7.61829-4.41046a7.66387,7.66387,0,0,1-.79547-1.88733A0.90591,0.90591,0,0,1,34.71259,37.86139Zm8.97308,1.73907a1.32371,1.32371,0,0,1,.724-1.61462,1.2002,1.2002,0,0,1,1.572.38745c0.378,0.36407.61871,0.86621,0.9671,1.2663a2.29542,2.29542,0,0,0,3.32971.46252,3.44459,3.44459,0,0,0,1.71307-2.63837c0.08826-1.00348.80609-1.19763,1.70178-.7486a4.46,4.46,0,0,0,1.74731.03912c-0.79,1.42554-1.61957,2.92877-2.45551,4.42841a5.37442,5.37442,0,0,1-2.75488,2.44244,12.61325,12.61325,0,0,1-4.88422,1.17157,0.88491,0.88491,0,0,1-1.10278-1.03625A26.52668,26.52668,0,0,0,43.68567,39.60046Zm2.101,7.63263-1.88531.41272-0.07343-.39594,1.90894-.21973Zm10.45343-3.9856-0.27118.0199a2.72908,2.72908,0,0,1,.01575-2.69373Zm-1.99487,4.35217Q55.492,46.488,56.739,45.37634C56.61017,46.931,55.29657,47.106,54.24518,47.59967ZM66.21606,35.11542c-1.275,1.38025-2.40515,2.89508-3.69208,4.26312-0.55823.59332-1.13989,1.16479-1.72327,1.7345,1.71985-2.06543,3.39056-4.1734,5.16229-6.19287a11.77,11.77,0,0,1,2.92645-2.2724C67.99359,33.46594,67.03632,34.22742,66.21606,35.11542Zm4.6955-17.98334a21.5801,21.5801,0,0,1-.81561,2.43646,5.93,5.93,0,0,0-.10724,5.34564c0.37878,0.78271.85883,1.51605,1.28168,2.278a1.55266,1.55266,0,0,1-.13086,1.85425,14.34311,14.34311,0,0,1-2.49219,2.63715c-3.15686,2.19092-5.35547,5.25507-7.75513,8.142a8.19542,8.19542,0,0,1-2.60449,2.5307,2.11308,2.11308,0,0,0-.84442,1.04944,8.81112,8.81112,0,0,0,1.9248-.91382c-0.37872.35748-.75537,0.71729-1.13477,1.07361a5.22985,5.22985,0,0,1-1.23108.60687C56.907,42.449,56.71478,40.84015,56.772,39.24023a8.23077,8.23077,0,0,1,.77881-2.47321,22.003,22.003,0,0,1,1.02094-2.30835,1.80034,1.80034,0,0,0-.21478-2.11676,2.15989,2.15989,0,0,1-.30359-2.65674,9.83894,9.83894,0,0,0,.5708-3.54883,1.05208,1.05208,0,0,1,.56042-0.80127,1.4982,1.4982,0,0,1,1.21484.30017c0.78955,1.08588,1.60126.947,2.52722-.12952,0.89557-1.04114.87244-2.37622,1.115-3.62628a2.40643,2.40643,0,0,1,.3172-0.9516c0.32269-.44067.74365-0.70233,1.2309-0.13525,0.41779,0.48621.80286,0.408,1.10492-.131,0.28485-.50812.50928-1.05591,0.83978-1.53094a3.87537,3.87537,0,0,1,1.02417-1.05835,22.86932,22.86932,0,0,1,2.06726-1.06885ZM59.10742,24.27039a0.74392,0.74392,0,0,1,1.14856-.08691c0.597,0.363,1.1629.843,1.8714,0.32343a2.67781,2.67781,0,0,0,.82166-2.283,5.56676,5.56676,0,0,1,.13068-1.58838,2.355,2.355,0,0,1,.78772-0.76318c-0.21368.904-.43469,1.83289-0.6524,2.76257-0.14227.60779-.24146,1.22864-0.4278,1.82239-0.33844,1.07855-1.157,1.21008-2.02594.50909A6.08616,6.08616,0,0,0,59.10742,24.27039Zm10.72491-8.713,0.07422,0.36676a6.60643,6.60643,0,0,1-1.61084.35931A1.43672,1.43672,0,0,0,66.74878,17.489c-0.42969,1.40289-.71332,1.61493-2.21185,1.62-1.92242.00647-2.62653,0.83472-2.32092,2.68549a4.29512,4.29512,0,0,1,.01752,1.22156c-0.11224.8894-.657,1.10376-1.44415,0.67773a3.164,3.164,0,0,0-1.30359-.41211,0.62165,0.62165,0,0,1-.66992-0.85577,4.75681,4.75681,0,0,1,1.77069-3.574c1.24939-.88342,2.33264-2.11505,3.70068-2.68878C66.00452,15.44287,67.90729,14.82745,69.83234,15.55743Zm-2.19574-1.015a10.3307,10.3307,0,0,0-5.768,2.13446A6.62487,6.62487,0,0,1,67.6366,14.54242Zm-4.94934-3.7865c0.47479,0.47522.43567,0.76965-.2215,0.99146-1.19391.40308-1.40955,0.31061-2.01807-.86884a6.86179,6.86179,0,0,0-.62262-0.85A3.25491,3.25491,0,0,1,62.68726,10.75592ZM62.58911,8.495a0.9693,0.9693,0,0,1,.155.2522c-1.2453.118-2.40454,0.22791-3.56378,0.33777A3.85723,3.85723,0,0,1,62.58911,8.495ZM56.7829,10.52753a2.4255,2.4255,0,0,1,3.24628,1.217c0.66742,1.063,1.10272,1.25641,2.24762.85828a0.7831,0.7831,0,0,1,1.09882.36853c0.22839,0.4007.4743,0.79138,0.606,1.01-1.66125,1.58209-3.25446,3.09937-4.92419,4.68951,0.3418-.85883.676-1.60138,0.92194-2.37213a1.2812,1.2812,0,0,0-.12561-0.861c-1.294-2.60193-3.4942-3.683-6.49615-3.66083C54.61572,11.31415,55.68524,10.87671,56.7829,10.52753Zm-3.18573,2.15405-0.0108.18512q-1.907-.11618-3.81378-0.23242l0.01062-.181ZM50.16577,10.327a21.04881,21.04881,0,0,0-1.94165-.969l0.04767-.1286c1.31238,0.57092,2.62482,1.14191,4.18738,1.82166A2.91752,2.91752,0,0,1,50.16577,10.327Zm4.8114-.41382c-1.55957.87946-3.05573,0.30164-4.39233-.51025a4.104,4.104,0,0,0-3.963-.36261A6.97765,6.97765,0,0,1,54.97717,9.91321ZM50.644,11.6615c-1.24115.09619-2.43115,0.11554-3.59515,0.29913-1.16254.18341-2.29907,0.53125-3.4256,0.80182C45.29034,10.13751,47.67908,9.74066,50.644,11.6615Zm-8.39783.22314C41.74774,12.39752,42.146,13.65,40.821,13.588,41.33148,12.97784,41.78888,12.43121,42.24615,11.88464Zm3.52161,2.02606a24.11573,24.11573,0,0,1,8.64185-.03906,56.92554,56.92554,0,0,0-6.25464.564,63.52434,63.52434,0,0,0-7.83862,2.12207c-1.72449.58179-2.66711,2.23334-3.774,3.58722a10.88759,10.88759,0,0,0-1.42657,2.17975,1.41483,1.41483,0,0,0,.98737,2.13031,12.372,12.372,0,0,0,4.13171.5249,36.47764,36.47764,0,0,0,7.3866-1.21075,9.07917,9.07917,0,0,0,4.30585-2.71332,1.34188,1.34188,0,0,0-.21472-2.12286,6.86026,6.86026,0,0,0-2.6239-1.0921,10.57738,10.57738,0,0,0-6.38708,1.08966,9.31681,9.31681,0,0,0-2.54047,2.32428,1.16833,1.16833,0,0,0,.45435,1.88757,8.95117,8.95117,0,0,0,1.55365.50812c-1.08435,0-2.4.01605-3.715-.00433a1.58357,1.58357,0,0,1-1.41125-2.54407A10.08176,10.08176,0,0,1,43.733,16.80829c2.455-.42145,4.91754-0.86725,7.39563-1.062a8.52077,8.52077,0,0,1,5.26715,1.3385,2.29714,2.29714,0,0,1,.35931,2.73029,14.18313,14.18313,0,0,1-8.30737,4.944c-1.12384.25488-2.23743,0.56616-3.37091,0.76465-1.35126.23657-2.72058,0.3678-4.07861,0.56824a12.83752,12.83752,0,0,0-1.921.38074c-2.07684.64258-3.91266-.05548-5.74774-0.91406-0.8775-.41058-1.76007-0.67487-2.15814-1.76282a2.51838,2.51838,0,0,1,.25708-2.38507,12.28783,12.28783,0,0,1,6.96045-5.41058C40.82507,15.22638,43.2746,14.45605,45.76776,13.91071Zm-8.827,10.08264c-1.50177-.3324-1.66547-0.63959-1.0896-1.89532C36.19855,22.70233,36.55383,23.32037,36.94073,23.99335Zm4.44147-1.74719a1.29554,1.29554,0,0,0,1.14386.32214,5.941,5.941,0,0,0,1.42383-.75537,1.90292,1.90292,0,0,1-2.53442,1.02179c-1.02411-.37567-1.14325-0.796-0.38843-1.60236,0.14825-.15839.2879-0.32477,0.303-0.34186A3.20127,3.20127,0,0,0,41.3822,22.24615Zm1.85938-1.79395c-0.43982,1.299-.43982,1.299-1.093,1.41248C42.09387,21.14648,42.1145,21.11859,43.24158,20.45221ZM45.983,19.26392a6.93755,6.93755,0,0,1,4.27319-.30713,2.22052,2.22052,0,0,1,1.1391,1.11542,1.76,1.76,0,0,1-.67621.949c-1.51184,1.26575-3.41827,1.56-5.24274,2.043-0.65674.17389-1.32855,0.29108-1.99353,0.43408l-0.02905-.22253a24.15965,24.15965,0,0,0,2.46814-1.3053,2.27692,2.27692,0,0,0,1.088-1.32556A3.323,3.323,0,0,0,45.983,19.26392ZM46.4845,20.713c-0.22974.24786-.39252,0.42352-0.66888,0.7218-0.52612-1.42365-1.17926-.43164-1.87463-0.21277C44.78882,20.04047,45.30969,19.92908,46.4845,20.713ZM28.26874,27.64288a2.23661,2.23661,0,0,0-3.57709-1.28625,2.40551,2.40551,0,0,0-.51208,1.05475c-0.10114.28925-.06714,0.62836-0.18091,0.90991a1.10807,1.10807,0,0,1-1.31152.93628c-0.74365-.20642-0.7077-0.86084-0.60907-1.47424,0.20935-1.30176-.22656-1.88055-1.65753-2.1933a12.09412,12.09412,0,0,1,6.9314.238c0.81061,0.21161,1.65668.28766,2.48676,0.42413,1.09576,0.18011,1.20544,1.16058,1.3194,1.925a1.8956,1.8956,0,0,1-.99817,1.1814A1.07016,1.07016,0,0,1,28.665,28.795,4.06806,4.06806,0,0,1,28.26874,27.64288Zm0.20978,2.2312a10.9761,10.9761,0,0,1-.949-1.00378c-0.33081-.4455-0.55182-0.97375-0.89056-1.41187a1.0101,1.0101,0,0,0-1.37982-.45654,1.41715,1.41715,0,0,1,2.35858.85248C27.84045,28.51965,28.22247,29.13159,28.47852,29.87408ZM33.009,14.33466a1.75958,1.75958,0,0,1,1.19672.0697c1.30457,0.66693,2.46875.09253,3.69727-.36292A12.66835,12.66835,0,0,0,33.67206,12.85a6.5231,6.5231,0,0,1,5.32574,1.28632c-2.20007,1.069-4.42474,2-6.49591,3.19672a5.75558,5.75558,0,0,0-2.85529,6.08051,11.29859,11.29859,0,0,0,.61932,2.00769c-2.4339-.39478-4.73474-0.76941-7.03625-1.1394a6.02724,6.02724,0,0,0-.74609-0.0755c-1.10071-.038-1.27838-0.33154-0.90533-1.41113,0.50989-1.47546,2.43134-2.90613,4.08545-2.30542a1.89715,1.89715,0,0,0,2.35559-.91284c0.50171-.82684,1.06775-1.623,1.48615-2.49023A5.29333,5.29333,0,0,1,33.009,14.33466Zm-7.31415,5.47083,2.06433-.90509,0.13867,0.23279q-1.04343.463-2.08679,0.926Zm-1.02063-1.93286a4.28784,4.28784,0,0,0,3.90326-1.73248c0.08331-.09222.16248-0.18823,0.4137-0.48022a4.29607,4.29607,0,0,1-3.89948,3.24072,4.209,4.209,0,0,0-4.24548,2.2146C21.25867,19.20435,22.926,17.67694,24.67419,17.87262Zm-3.82861,4.65021c-0.13318.62836,0.33014,1.84125-.95111,1.98621C20.225,23.81879,20.57391,23.09009,20.84558,22.52283Zm0.24762,4.07965a6.03524,6.03524,0,0,1,.45844,2.02783l-0.26587.05188-1.66412-2.12183C20.05273,26.56036,20.93811,26.35376,21.0932,26.60248Zm1.72388,16.2572q-0.83835-1.634-1.67664-3.26819l0.323-.16876q0.82837,1.64218,1.65686,3.28436Zm5.60846,4.15308a7.92651,7.92651,0,0,1-4.17224-2.35132,1.74712,1.74712,0,0,1-.32135-1.055A10.76739,10.76739,0,0,0,21.66223,38.541c-0.92792-1.36572-1.83356-2.74652-2.75684-4.11548A16.323,16.323,0,0,1,17.84,32.88977c-0.462-.89331-0.83313-1.83368-1.1629-2.57489,0.56842-.67407.98407-1.187,1.423-1.6792a4.19729,4.19729,0,0,1,.74854-0.69647c0.531-.3598.93115-0.37653,1.21149,0.37378a2.98559,2.98559,0,0,0,2.449,1.8241,1.76211,1.76211,0,0,0,1.2038-.3291,7.36059,7.36059,0,0,0,1.33441-1.32019c0.81708-.99042.81543-1.00409,1.50421,0.11035,0.14813,0.23962.28473,0.48718,0.44482,0.71857,1.30652,1.88824,2.26727,1.5498,3.7381.49939,0.763-.54492.89612-0.52875,1.16083,0.40051,0.22137,0.7771.48242,1.54291,0.68756,2.19232-2.158.54242-4.28143,1.01208-6.36383,1.62207a3.27414,3.27414,0,0,0-2.48053,2.8877,14.02439,14.02439,0,0,1-.35382,1.74261,2.85645,2.85645,0,0,0,1.34552,3.22931c1.29059,0.93988,2.62,1.82635,3.91107,2.76563,1.1062,0.80481,2.18213,1.65131,3.44434,2.61072C30.69928,47.17688,29.55157,47.17151,28.42554,47.01276Zm4.83972,0.53467q-1.45514-1.14194-2.91028-2.28394l0.07861-.11414q1.52042,1.05249,3.04089,2.10492Zm6.03735,1.98816c0.66858-.17548,1.23706-0.32471,1.88818-0.49561C41.23682,49.96606,40.58209,50.12244,39.30261,49.53558Zm0.44507-1.28088a2.30414,2.30414,0,0,1-2.27356.50861c-1.35907-.47723-2.82251-0.64575-3.71094-2.06207a5.41372,5.41372,0,0,0-1.68677-1.3175c-2.05762-1.36292-4.18353-2.63068-6.16742-4.0921a3.45991,3.45991,0,0,1-1.1637-2.12268,3.21564,3.21564,0,0,1,1.92529-2.58246,1.15592,1.15592,0,0,1,1.44458.86951c0.21777,0.58594.36884,1.20087,0.63025,1.76556a2.72612,2.72612,0,0,0,3.30737,1.6366,7.58967,7.58967,0,0,0,1.93286-1.42792,14.07837,14.07837,0,0,0,1.12146,1.88086A11.4773,11.4773,0,0,0,42.748,45.46985a4.03865,4.03865,0,0,1,.80249.29681,5.58377,5.58377,0,0,0-.42126.71814,5.86533,5.86533,0,0,0-.19336.90857l-1.45978-.676C40.85425,47.27765,40.33856,47.817,39.74768,48.2547Zm2.82318,1.88-0.18713-.22687,1.15271-1.59827c0.41675,0.19421,1.25836-.50616,1.39087.58051a1.61968,1.61968,0,0,1-.15118.565c-0.183-.08984-0.36932-0.17346-0.54816-0.27094-0.22839-.12451-0.45074-0.26013-0.67566-0.39093a4.39711,4.39711,0,0,1-.357.70447A6.15127,6.15127,0,0,1,42.57086,50.1347Zm0.75989,0.86487-0.02838-.12341,3.865-.93768,0.088,0.42749Q45.29312,50.68274,43.33075,50.99957ZM47.13129,79.065c-0.33185-4.97015-.68274-9.94818-0.7262-14.92548-0.03265-3.74481.4035-7.49377,0.632-11.24078,0.03943-.64618.0838-1.292,0.12585-1.938l0.3656,0.03473c0,0.707.03467,1.41608-.007,2.12054-0.09772,1.654-.24731,3.30487-0.348,4.95874-0.2016,3.31177-.53625,6.62451-0.54041,9.93719A54.884,54.884,0,0,0,48.512,83.41412a39.94433,39.94433,0,0,1,.89288,4.59045A34.54562,34.54562,0,0,1,47.13129,79.065Zm3.603,6.93433a17.84044,17.84044,0,0,1-.3147,2.34937l-0.12744-.04321c-0.66547-2.7749-1.38788-5.53815-1.96228-8.33179a9.34,9.34,0,0,1,.10779-2.68719,40.00816,40.00816,0,0,1,1.45251-8.76044,30.28938,30.28938,0,0,1,4.59-8.474c0.58533-.79626,1.12616-1.62512,1.68738-2.43909l0.24731,0.07581c-0.14056.79785-.24744,1.60345-0.42761,2.39227-0.717,3.13727-1.40778,6.28186-2.20428,9.39917-0.61127,2.39252-1.39777,4.73975-2.05023,7.12244A36.00491,36.00491,0,0,0,50.73431,85.99933ZM78.37378,65.23181a8.37279,8.37279,0,0,0,1.97339-.222A21.72334,21.72334,0,0,1,79.101,67.076a21.51348,21.51348,0,0,1-6.15973,5.44238c-3.126,1.8479-6.34,3.549-9.43817,5.441A41.92993,41.92993,0,0,0,59.15729,81.235c-0.91919.74146-1.75964,1.58173-2.62366,2.39014a33.13639,33.13639,0,0,0-5.43719,6.99957l-0.27338-.03784c0.17523-.938.075-2.07037,0.575-2.77936a65.8469,65.8469,0,0,1,5.84375-7.47089A52.81048,52.81048,0,0,1,63.398,75.28918a51.00881,51.00881,0,0,1,4.28851-3.03638c1.67334-1.04053,3.51184-1.82458,5.14148-2.9234a19.4408,19.4408,0,0,1,4.60828-2.46515,1.12176,1.12176,0,0,0,.4845-0.28021,7.08485,7.08485,0,0,0,.52045-0.77661,2.33893,2.33893,0,0,0-.86774.10541c-2.57013,1.47955-5.06616,3.09937-7.698,4.457a34.6026,34.6026,0,0,0-6.36835,4.1308,14.11568,14.11568,0,0,1-1.40894.9223,34.35936,34.35936,0,0,0-9.51489,9.61786c-0.15906.23059-.34906,0.43982-0.52466,0.65894l-0.33942-.13055q1.76514-4.02631,3.53522-8.05042a7.84742,7.84742,0,0,0,.54468-0.98444c1.00989-3.73669,4.10016-5.09772,7.26263-6.32379,3.894-1.50977,7.86194-2.83649,11.71265-4.44617A6.41253,6.41253,0,0,1,78.37378,65.23181Zm1.558-5.6521a36.66764,36.66764,0,0,0-3.39587,3.37091c-1.48041,2.0307-3.63617,2.75629-5.78839,3.58478-3.03827,1.16943-6.08905,2.3075-9.10883,3.52258-1.06091.42688-2.04639,1.04126-3.06628,1.57007l-0.15552-.09772,3.037-4.8913,0.13947,0.20532a12.3947,12.3947,0,0,0,1.59094-.50732q4.58981-2.15387,9.15546-4.35895c1.35284-.65076,2.69019-1.3338,4.03271-2.0058a47.19634,47.19634,0,0,1,4.80817-2.18542A13.54983,13.54983,0,0,1,79.93176,59.57971Zm0.42932-4.74847a16.11838,16.11838,0,0,0,2.40045-.761c-0.546.94812-.48993,1.84668-1.39563,2.4a123.55321,123.55321,0,0,1-14.98083,7.50555c-1.42035.62231-2.77679,1.39032-4.1626,2.09143l-0.087-.1731c1.46954-1.70239,2.92426-3.418,4.42224-5.095a3.4951,3.4951,0,0,1,1.081-.65106c1.7583-.873,3.55786-1.66931,5.27771-2.61169A21.68928,21.68928,0,0,1,80.36108,54.83124Zm-4.04315.28967a38.37627,38.37627,0,0,0-5.19659,2.79449,16.445,16.445,0,0,1-3.10022,1.29449q7.27148-8.90955,14.543-17.81909L82.645,41.50415c-0.77484,2.65973-1.48547,5.34143-2.37964,7.96045a3.41786,3.41786,0,0,1-1.625,1.15363c-1.64417.90533-3.317,1.75861-4.96594,2.6554a4.28172,4.28172,0,0,0-.71252.61951l0.21558,0.343Q76.36426,52.58255,79.551,50.929l0.18341,0.19446C78.63055,52.46838,78.43018,54.389,76.31793,55.12091Z"/><text x="0" y="115" fill="#000000" font-size="5px" font-weight="bold" font-family="'Helvetica Neue', Helvetica, Arial-Unicode, Arial, Sans-serif">Created by Tatyana</text><text x="0" y="120" fill="#000000" font-size="5px" font-weight="bold" font-family="'Helvetica Neue', Helvetica, Arial-Unicode, Arial, Sans-serif">from the Noun Project</text></svg>