<svg xmlns="http://www.w3.org/2000/svg" data-name="Слой 1" viewBox="0 0 100 125" x="0px" y="0px"><title>lemon</title><g><path d="M50.71784,6.973c4.89946-.10718,9.36878,1.3666,13.78956,3.00753,3.06823,1.13889,6.19915,2.17258,9.1221,3.60213,1.60645,0.78568,2.77441,2.38238,4.2557,3.45779,3.30073,2.3963,5.54883,5.72068,7.88636,8.94034a27.56213,27.56213,0,0,1,4.21205,10.61133,42.14843,42.14843,0,0,1,.95485,11.167c-0.15013,2.92371.07117,5.85348-.07645,8.77736a34.04047,34.04047,0,0,1-.88275,6.67253,58.39016,58.39016,0,0,1-3.33849,10.69131c-2.60988,5.49688-6.06865,10.575-11.5617,13.69735a39.21359,39.21359,0,0,1-7.93472,3.27188,68.03842,68.03842,0,0,1-8.8283,1.89555,34.6296,34.6296,0,0,1-5.22588.23607c-2.28217.02462-4.57227,0.07861-6.84174-.0598a43.73789,43.73789,0,0,1-12.84777-2.99256c-3.49665-1.31822-6.14475-3.73643-9.07426-5.73956-2.09532-1.43274-3.364-3.99622-5.173-5.89129-4.04107-4.23358-6.23563-9.56562-8.39264-14.85181a37.85474,37.85474,0,0,1-1.89563-8.86c-0.786-5.45532.48871-10.76883,1.85305-16.09558,1.6193-6.32226,4.91351-11.8599,8.68428-17.03452,2.04071-2.80043,5.12516-4.95643,7.99131-7.04971A39.68492,39.68492,0,0,1,42.21886,7.98454,77.66229,77.66229,0,0,1,50.71784,6.973ZM39.21827,85.19891c-5.08477-1.05132-9.69662-2.21551-12.98317-6.76853A141.22032,141.22032,0,0,1,16.313,63.47211a12.70157,12.70157,0,0,1-.96363-2.38823c-1.154-3.81366-.57316-7.70412.01741-11.57424,0.60848-3.98747,1.33042-7.96137,1.98068-11.94408,0.06028-.36923-0.088-0.76179-0.05355-1.13865a12.66811,12.66811,0,0,1,.363-2.668c0.24363-.76966.90354-1.41567,1.18016-2.1821a21.02876,21.02876,0,0,1,5.70543-8.298c2.79923-2.5751,5.94356-4.77665,8.97665-7.08881a3.9655,3.9655,0,0,1,1.559-.44578c2.98639-.62624,5.98356-1.19647,8.95712-1.88615a12.39277,12.39277,0,0,0,2.00418-1.07025,11.43589,11.43589,0,0,1,2.58834-.97054,20.20857,20.20857,0,0,1,3.12926-.12735c3.5459-.07857,6.90968.43493,9.82283,2.55864a8.99806,8.99806,0,0,0,1.83639.78616c2.06845,0.87272,4.14056,1.73753,6.20209,2.6253,1.52363,0.6561,2.99484,1.4459,4.56225,1.98017a18.04252,18.04252,0,0,0,3.27318.49856c0.22743-1.25418-1.94654-3.82327-3.12319-3.25877-1.56055.74867-1.20985-.43343-1.75055-1.03841a9.8676,9.8676,0,0,0-3.18965-1.93018c-0.58362-.27824-1.68085-0.05436-1.90516-0.44215-1.20054-2.07565-3.51046-1.71844-5.33662-2.46421l1.58045,1.174-0.39428.41515c-1.09478-.4336-2.64467-0.55361-3.18982-1.36588C59.001,9.52381,57.23263,9.51905,55.65055,9.11725a30.24172,30.24172,0,0,0-4.841-.46737l-0.08019.67168a9.93371,9.93371,0,0,0,1.32277.117,12.40154,12.40154,0,0,0,1.47035-.23514,2.47278,2.47278,0,0,1-4.294.37177,7.20745,7.20745,0,0,0-1.35253-1.05443l-0.2399.32254,0.57142,1.38936c-1.29024.15092-2.37456,0.33961-3.45853,0.3748A4.98426,4.98426,0,0,1,43.41,10.148a2.31673,2.31673,0,0,0-1.34847-.24672,16.573,16.573,0,0,0-2.84505,1.95136c-1.25026,1.069-2.44068,1.17012-3.49621.33868a48.0782,48.0782,0,0,0-6.70789,3.157,50.40775,50.40775,0,0,0-5.61366,5.031c0.01621,0.01529-.222-0.20976-0.59924-0.56608-1.3415,1.58112-2.624,3.09275-4.07072,4.79792l1.22538,0.1002q-2.85612,3.80291-5.71388,7.60788,0.35558,0.32377.71118,0.64747,0.91265-1.27082,1.82531-2.54169a0.774,0.774,0,0,1,.25528.70969c-1.6568,3.53805-3.30261,7.08127-5.0055,10.59838-0.30247.62471-1.15479,1.11274-1.2252,1.708a48.15576,48.15576,0,0,0-.24553,5.72c0.001,0.71494.58374,1.50175,0.39365,2.11475-0.91214,2.94151.061,5.7712,0.0779,8.64718a14.83373,14.83373,0,0,0,1.01105,3.72525c1.58452-.90262,2.19953-0.62209,2.24118.812,0.02709,0.93268-.06634,1.87243-0.07649,2.8083a4.80316,4.80316,0,0,0,1.80568,3.96826l0.06486-1.8579,0.42757-.132c1.57764,1.7803.41,5.20823,3.29,6.31427A3.27893,3.27893,0,0,1,20.157,74.933c0.31151-.322.6594-0.60881,0.9924-0.91a11.429,11.429,0,0,1,.64244,1.53221,1.60632,1.60632,0,0,1-.28276.75541c-0.85712,2.03614-.54387,2.92012,1.22535,3.91322l0.69156-1.233a3.87285,3.87285,0,0,1,.89186.90125c0.64141,1.34445.81748,3.12613,3.15589,2.3812,0.86613-.2759,1.14425.403,1.07185,1.28933-0.133,1.62825,1.06,2.3392,2.31827,2.72106a7.4114,7.4114,0,0,0,2.53037-.23231C34.42074,88.20926,35.29908,88.15119,39.21827,85.19891Zm14.7798-36.1982c-1.46575,1.13611-1.46031,1.13082-.02363,2.60319a2.3365,2.3365,0,0,1,.36747.68,17.33068,17.33068,0,0,0,1.15713,2.528c1.93765,2.89232,4.07,5.65656,5.89734,8.61683a33.44965,33.44965,0,0,1,3.01381,6.36548c0.604,1.70367.67438,3.56674,1.94555,5.049,1.834,2.13844,5.83461,3.213,7.63631,1.5881,1.90905-1.72171,4.06252-3.29319,4.689-6.14523,0.46333-2.10943.58759-4.00437-.62894-5.7808a19.061,19.061,0,0,0-1.5086-1.8866c-1.77611-1.99438-3.32-4.29883-5.41761-5.8806a31.726,31.726,0,0,0-12.33182-5.76539A30.4739,30.4739,0,0,1,53.99807,49.00071ZM48.5,43.45073c2.11551,0.81514,2.93371-1.46067,4.88693-1.1474,1.803,0.28917,3.87259-.9592,5.85214-1.37572,3.60224-.75783,7.21152-1.51748,10.843-2.05495,2.86341-.42379,5.80457-0.33517,8.50211-1.65812a4.99264,4.99264,0,0,0,1.85345-1.56292,5.05926,5.05926,0,0,0-.24085-6.24019,50.80633,50.80633,0,0,0-4.3721-4.91934c-2.70167-2.81512-4.54571-2.157-8.48109-.31641-4.6604,2.17968-7.95054,6.02244-11.19636,9.88344-1.47177,1.75069-3.12364,3.35271-4.58281,5.11288C50.48152,40.47827,49.57761,41.93078,48.5,43.45073Zm1.66111,9.29965c-0.2059.68435-.32471,1.0399-0.41961,1.4009-0.77922,2.96378-2.063,5.91922-2.222,8.89515-0.31026,5.80921-1.06407,11.70523.72984,17.409a1.93754,1.93754,0,0,0,1.211,1.527c3.63043,1.62043,7.48035,1.11758,11.28059.77212a3.2981,3.2981,0,0,0,2.26275-1.72639,21.28731,21.28731,0,0,0,1.08444-5.06845c0.26215-2.13771-1.29129-3.58325-2.15587-5.281-2.7292-5.35915-5.53566-10.67787-8.19664-16.07217-0.89516-1.81469-2.68247-1.688-4.16566-2.24792a1.98382,1.98382,0,0,0-.83252.51882l0.1048,0.19688ZM21.64112,34.70779c-0.18126,2.87218.66666,4.77847,2.84048,5.68735,3.07829,1.287,6.224,2.44746,9.4122,3.4573,2.824,0.89451,5.7352,1.54852,8.63638,2.198a1.77818,1.77818,0,0,0,1.32375-.81505c0.99742-1.63592-.27687-2.85564-0.738-4.25126-1.06244-3.21531-2.09006-6.44764-2.98307-9.71835-0.97121-3.55722-3.61228-5.5039-6.57867-7.1441a2.40064,2.40064,0,0,0-1.85014.04689c-1.41252.62011-2.75543,1.411-4.12113,2.14356C23.9927,28.23779,21.54082,30.90845,21.64112,34.70779ZM45.32842,54.02671a2.93541,2.93541,0,0,1,.14358-0.61329c0.43448-.92643,1.02027-2.06334-0.27291-2.45913-0.47912-.14664-1.44162.90278-2.07291,1.52011-0.46154.45127-.65249,1.18183-1.1181,1.62611-2.53606,2.41978-5.24,4.675-7.65952,7.20277-3.783,3.95248-5.56185,8.64338-4.52213,14.012,0.49011,2.53092,1.54249,4.95005,3.95332,6.1456,2.48959,1.23461,7.74023-1.21988,8.49958-4.02185,0.38793-1.43149.96154-2.82517,1.26787-4.26861,1.1147-5.253,2.16473-10.51779,3.21331-15.78236C47.31562,54.601,47.29155,54.597,45.32842,54.02671Zm0.262-12.64647,0.58974,0.25483a18.59082,18.59082,0,0,0,2.83765-3.22657c2.17813-4.05905,5.70262-6.9113,8.7319-10.21954a55.01125,55.01125,0,0,0,4.9831-6.45692c1.278-1.89854.69752-4.47219-.85844-5.16848a24.16909,24.16909,0,0,0-9.86124-1.69887,5.2183,5.2183,0,0,0-4.65,2.67756c-2.30542,3.48628-3.01925,7.4683-3.32587,11.45556a36.41548,36.41548,0,0,0,.40549,7.13074A53.46572,53.46572,0,0,0,45.59041,41.38024Zm9.51694,2.505-0.07793.502c1.98154,1.02889,3.93461,2.11463,5.9528,3.07032,1.94908,0.92292,4.2846,1.0966,5.77715,2.90438a1.97694,1.97694,0,0,0,.83927.44268c1.78152,0.66292,3.55045,1.363,5.35867,1.95245,3.17881,1.03623,6.127,3.42232,9.86918,1.44a1.633,1.633,0,0,1,.78492.34421,2.3701,2.3701,0,0,1-.64408,1.016c-1.63.31718-3.38255,0.9456-4.8998,0.64065a43.41177,43.41177,0,0,1-6.72392-2.45989A36.99829,36.99829,0,0,0,79.14434,57.57a4.05388,4.05388,0,0,0,5.44211-4.321c-0.14663-1.8968-.00022-3.8273-0.16581-5.72072-0.14788-1.69044.0993-3.56109-1.53064-4.7773a13.68676,13.68676,0,0,0-9.85408-2.39618c-4.40566.44421-8.79126,1.26915-13.16578,2.06346A40.14653,40.14653,0,0,0,55.10736,43.88529ZM86.91347,58.32138l-0.40195.072a12.15362,12.15362,0,0,1,.14883-3.04893c0.70154-2.30829,1.68647-4.53877,2.41611-6.84076,0.281-.88664.59859-2.20684,0.1726-2.76593-1.17774-1.54581-.72-3.07924-0.37015-4.665a8.18389,8.18389,0,0,0-1.06648-5.60656l-0.32986,2.08-0.67248-.03656a33.84215,33.84215,0,0,0,.30464-4.05009c-0.03169-.88269-0.253-2.31147-0.7735-2.49536-1.57495-.55655-1.94515-1.3455-1.61108-2.93889,0.2138-1.01977-.03531-2.06217-1.56875-1.98712a1.39359,1.39359,0,0,1-.86956-1.00266,7.0643,7.0643,0,0,0-3.60607-4.9235A9.606,9.606,0,0,0,80.072,23.4822c2.9685,4.07883,3.461,9.10769,4.83475,13.76619C85.766,40.162,85.57568,43.401,86.13268,46.434c0.82341,4.48377-.08,8.7502-1.21577,13.12982-0.80948,3.12144-2.86,5.9032-2.73437,9.27653a3.69094,3.69094,0,0,1-.84272,1.91609,41.01485,41.01485,0,0,1-2.63952,3.44968c-3.24769,3.77012-6.59263,7.41043-11.53906,8.99954a40.97,40.97,0,0,0-3.91552,1.70553l0.17827,0.583a33.2026,33.2026,0,0,1,3.47843-.3288,4.04016,4.04016,0,0,1,1.47206.66547q-0.51233.56789-1.02467,1.13574a6.67257,6.67257,0,0,0,1.70833-1.14143,1.36121,1.36121,0,0,1,.73-0.282c0.86451-.03369,1.72925-0.01307,2.55587-0.01307,0.37223-1.58342,3.26786-3.29,4.489-2.7832,4.57137-3.72465,4.96517-4.19331,5.0648-6.27453-0.69527.578-1.25368,1.0422-1.90816,1.58625-0.54151-1.64173.73193-2.07194,1.55632-2.79265a2.63506,2.63506,0,0,0,.951-1.26132c0.49988-3.07952,2.94156-5.52553,3.07974-8.71089a1.04316,1.04316,0,0,1,.30236-0.09406q0.20041,1.623.40154,3.25211l0.713-.04181a29.72635,29.72635,0,0,1,.16922-3.91435c0.33-1.95039-.5913-4.27042,1.70458-5.71249a0.61177,0.61177,0,0,0,.1359-0.45748c-0.07544-1.97089-.16447-3.94086-0.25006-5.911l-0.54547-.07021ZM41.95822,48.15164c-0.65836-.22319-1.45483-0.522-2.27-0.764a33.89313,33.89313,0,0,0-6.20311-1.71622c-2.89516-.27815-5.7693.56571-8.63225,1.29768A6.449,6.449,0,0,0,19.7566,51.738a17.27759,17.27759,0,0,0,.271,10.72924,1.41106,1.41106,0,0,0,2.19452.90989c2.82152-1.52414,5.6627-3.02819,8.37909-4.733,2.6602-1.66958,5.14536-3.62485,7.76885-5.359,1.28143-.847,2.83971-1.30365,3.37569-3.00236a0.46461,0.46461,0,0,1,.39224-0.244ZM24.48971,26.07672c1.98582-1.049,3.92323-2.22007,5.97859-3.09364a4.36083,4.36083,0,0,1,3.2281-.282c2.40776,1.3223,4.596,3.02718,6.72555,4.48458,0.16889-1.06133.00207-1.491-1.71684-3.86959a6.45991,6.45991,0,0,0-9.14373-.884,1.13683,1.13683,0,0,1-.52317.37722C26.72571,22.795,25.79622,24.70245,24.48971,26.07672Zm28.307,21.11645c-1.74626-.72951-3.32046-1.41148-4.92284-2.02513a0.92321,0.92321,0,0,0-.78823.34119,13.08594,13.08594,0,0,0-.47842,3.73562A2.30621,2.30621,0,0,0,48.22167,50.894c1.25784-.073,2.97853.28845,3.4486-1.73313A10.13,10.13,0,0,1,52.79668,47.19317ZM42.89518,88.69665l0.27656,0.42314c1.72246-.93858,3.44491-1.87711,5.53985-3.01862-2.53006-.28566-4.635-0.95193-6.60909-0.62487-1.9461.3225-3.75968,1.65081-5.6314,2.53782l0.26564,0.85726c2.12444-.41346,4.24889-0.82692,6.487-1.26253ZM17.294,52.75978l0.61022,0.293c0.34789-5.91889,4.689-7.30725,9.35217-8.37419a12.554,12.554,0,0,0-2.78459-.63653,5.49336,5.49336,0,0,0-6.002,4.73751,9.64845,9.64845,0,0,1-.36451,1.25712Q17.69989,51.3983,17.294,52.75978Zm2.55334,13.37484c1.55144,3.98843,3.34045,6.674,4.91394,7.3133a21.51248,21.51248,0,0,1-.1984-3.4498,22.1208,22.1208,0,0,1,.8368-3.36708l-0.42341-.1688c-0.65472,1.33307-1.30944,2.66614-1.95228,3.975-1.5481-.85807-1.91226-2.00326-1.01686-3.80947a12.74883,12.74883,0,0,0-1.20951-.42815A5.33673,5.33673,0,0,0,19.84731,66.13462Zm8.26562,4.37506c1.13621-4.65152,2.46524-7.14119,5.8075-10.32123,1.93553-1.8416,3.93-3.62106,5.898-5.42848l-0.32016-.31225C34.21038,58.78484,28.42763,62.77933,28.11293,70.50968ZM45.871,82.66238c-0.192-3.54261-.38255-7.058-0.58614-10.81407C43.6019,75.43092,43.95651,80.95484,45.871,82.66238ZM23.21814,64.43474l0.23792,0.627c3.40338-.16718,5.71752-2.11564,7.58239-4.90974C28.38982,61.60251,25.804,63.01862,23.21814,64.43474ZM55.29525,86.31242l0.01273-.28719a21.48489,21.48489,0,0,0-4.7731.08418c-1.24988.28945-2.35244,1.32084-3.52031,2.02335l0.34091,0.597,2.46783-1.29534,0.52259,0.50982C52.13077,87.35575,53.713,86.83406,55.29525,86.31242ZM19.79095,34.21129c-1.24748,4.86684,1.69117,8.35776,6.58732,8.31923C20.24706,39.87458,20.70865,40.31415,19.79095,34.21129Zm23.06-16.18585c-2.17358,2.05087-2.57355,4.62606-1.02893,6.56C42.15426,22.46748,42.50686,20.21952,42.851,18.02544Zm23.47712,3.19021,3.78514-1.68305c-1.2532-.5459-2.32709-1.01367-3.30352-1.439C66.621,19.31722,66.46638,20.3194,66.32812,21.21564Zm-7.1719,40.267-0.34416.19148q2.06368,3.93323,4.12736,7.86642L63.414,69.276Q61.2851,65.37929,59.15621,61.48266ZM57.94978,89.53842c-2.43166.6812-4.45172,1.24708-6.72164,1.883C53.65995,91.41787,55.91362,91.77661,57.94978,89.53842Zm10.416-8.10979,3.73437-2.07654-0.1077-.3949c-0.81893-.06981-1.63787-0.13958-2.40285-0.20479Zm9.23563-42.187c2.28465,0.54586,4.45-.58331,4.22877-2.01984C80.49287,37.86055,79.14905,38.50241,77.60144,39.2416ZM39.52532,21.6406c0.23326-.89233.40632-1.55433,0.68159-2.60738-1.06259.33328-1.86309,0.58432-2.93845,0.92155C38.15021,20.61341,38.73841,21.05282,39.52532,21.6406Zm1.462,60.79391,0.12964,0.32c0.56632-.15484,1.13263-0.30967,1.6-0.43743l0.98744,1.25478,0.31278-.27-0.91128-2.4285Q42.04207,81.65726,40.98734,82.43451Zm15.12361,3.31292-0.17416.68354a15.31382,15.31382,0,0,0,2.36247.33388,3.6736,3.6736,0,0,0,1.16725-1.01743H56.11094ZM45.27579,17.92294c-1.99808,1.42439-1.494,3.17822-1.59038,4.76766Zm32.40033,40.93q0.9722,0.86352,2.1036,1.86848c0.54129-.34373,1.04611-0.6643,1.6774-1.0652C80.0896,59.36565,78.91271,59.11562,77.67612,58.85292Zm-18.653,31.1607,0.09627,0.38424,3.83493-1.239-0.19464-.60356Q60.89138,89.28445,59.02311,90.01362Zm6.2192-9.71823c1.08287-3.32,1.08287-3.32.12994-3.72218ZM78.826,62.73458q0.92641,1.58225,1.8528,3.16442C80.25249,64.7087,80.44776,63.16155,78.826,62.73458Z"/><path d="M59.80372,56.51271A4.13524,4.13524,0,0,1,63.65846,58.397c2.30474,2.9543,4.9254,5.658,7.40881,8.47136a8.614,8.614,0,0,1,.59837.86477l-0.25472.38243a4.93374,4.93374,0,0,1-1.45862-.78576c-2.3964-2.69451-4.73391-5.44172-7.09481-8.1681a7.48054,7.48054,0,0,0-1.49032-1.39186,27.48942,27.48942,0,0,0,4.53568,9.169c1.00692,1.38351,2.27233,2.57312,3.38824,3.87855a3.97644,3.97644,0,0,1,.83245,1.36269,3.11977,3.11977,0,0,1-.17631,1.233A2.61346,2.61346,0,0,1,69.014,72.902c-1.47079-2.04906-3.04163-4.04436-4.29913-6.22542-1.79677-3.11628-3.35632-6.3748-5.00236-9.58055A1.4175,1.4175,0,0,1,59.80372,56.51271Z"/><path d="M71.07465,63.50423c-1.43542-.30346-5.67456-4.53171-5.58042-6.49764C67.5695,59.42295,69.5258,61.70081,71.07465,63.50423Z"/><path d="M62.27579,33.66753a2.23341,2.23341,0,0,0,1.06895.13954c2.93393-1.42358,5.84094-2.90576,8.76012-4.36178a1.58108,1.58108,0,0,1,1.19919-.11424,2.62614,2.62614,0,0,1-.61827.71615c-3.4963,1.78164-6.97519,3.60738-10.53759,5.23813-0.80525.36863-1.913,0.0341-2.88157,0.0232,0.48186-.79984.7763-1.90806,1.47669-2.34828,3.88059-2.43911,7.85621-4.72238,11.81292-7.0347a3.80748,3.80748,0,0,1,1.0937-.24817c-0.0542,1.57281-3.652,4.45419-5.78459,4.74534q1.55037-1.29909,3.10067-2.59818l-0.22389-.34817c-2.73221,1.714-5.47361,3.4134-8.17948,5.16925A2.079,2.079,0,0,0,62.27579,33.66753Z"/><path d="M50.79689,67.403c-0.00284.86146-.01846,1.72353-0.006,2.58422,0.03015,2.0817.12442,4.16224,0.07339,6.2445a4.01258,4.01258,0,0,1-.77163,1.45352,4.6818,4.6818,0,0,1-.70952-1.37822,59.84971,59.84971,0,0,1,.26024-15.595,3.94734,3.94734,0,0,1,.77876-1.28444,4.24223,4.24223,0,0,0,.82146.9232c2.29782,1.40611.181,3.69414,0.93086,5.50063,0.61042,1.47043.44716,3.28366,0.627,4.94489l0.46758-.00759L53.60742,61.096l0.3211,0.02183Q56.12274,69.49011,58.317,77.8624l-0.45621.17336c-1.40577-3.30973-2.157-6.8791-3.47508-10.57489L54.078,76.27418l-0.46963.1849a19.9364,19.9364,0,0,1-1.09059-2.881c-0.37939-1.737-.54759-3.52627-0.89494-5.27264a2.56667,2.56667,0,0,0-.83417-0.89092q0.10195-2.91942.20385-5.83879c-1.09312,2.12791-1.41061,7.46087-.91074,8.56623C50.29073,69.34157,50.54379,68.37229,50.79689,67.403Z"/><path d="M33.94463,33.75283c-0.35326-1.20991-.657-2.25022-1.02045-3.49487,1.58355,1.30664,4.72719,8.471,4.08976,9.55545l-5.95963-8.24687-0.2997.164c1.05532,1.95112,1.9703,3.99969,3.20608,5.82548,1.19311,1.76267,3.5214,2.51881,4.67446,4.3705l-0.54483.6011q-6.507-5.16834-13.01395-10.33665l0.4974-.65207,6.71534,5.311c-1.28615-2.92864-2.37606-5.41036-3.6347-8.27637C31.79918,29.24227,31.95082,32.30621,33.94463,33.75283Z"/><path d="M31.6818,74.17424q1.961-4.089,3.922-8.178l-0.43913-.29688c-0.948,1.36644-1.87335,2.74919-2.85691,4.09017a9.8293,9.8293,0,0,1-1.21645,1.1813,3.89375,3.89375,0,0,1,.15076-1.72639c2.32682-3.43172,4.7394-6.80707,7.21166-10.32143,1.02341,0.89427,1.63137,1.62668.61856,2.90588a30.6982,30.6982,0,0,0-1.87223,2.97407l0.38359,0.25,1.92219-2.34489,0.422,0.15282a2.63458,2.63458,0,0,1-.05925,1.11181c-2.55535,4.42667-2.404,9.87791-5.485,14.09943l-0.50634-.15871c1.25617-3.60988,2.51233-7.21976,3.92233-11.27175-2.86409,2.31571-3.117,5.945-5.61609,7.89459Z"/><path d="M39.40255,72.21767q1.31769-6.07684,2.63538-12.15371,0.40135,0.08226.80272,0.16448-1.46582,6.06842-2.93161,12.1368Z"/><path d="M49.53532,25.15311C50.41213,23.90026,51.28,22.6412,52.172,21.399a3.0223,3.0223,0,0,1,.79354-0.82038,5.34078,5.34078,0,0,1,1.13467-.40216,2.98268,2.98268,0,0,1,.11924,1.3022c-0.97088,2.29441-2.027,4.55516-3.04578,6.83088a8.35535,8.35535,0,0,0-.28255.84254l7.0607-7.80057a3.36451,3.36451,0,0,1,.019,1.14418c-3.9054,3.11495-6.27677,7.40668-9.005,11.427a3.67915,3.67915,0,0,1-1.30562.25471c1.86358-4.14831,3.57556-7.95919,5.28754-11.77l-0.335-.19345a34.53077,34.53077,0,0,0-3.20792,5.04968c-1.12866,2.672-1.82259,5.51367-2.74371,8.27036a1.09194,1.09194,0,0,1-.711.648,1.00023,1.00023,0,0,1-.68643-0.696,15.68093,15.68093,0,0,1,.637-2.35828c1.38117-4.35089,2.75534-8.704,4.18717-13.03987a3.80537,3.80537,0,0,1,.99614-1.07961,3.51985,3.51985,0,0,1,.20673,1.56962c-0.59665,1.51034-1.35617,2.96128-2.0537,4.43482Z"/><path d="M76.71119,45.87249q1.81217,0.90438,3.62436,1.80871l-0.17726.70251q-5.3367-.50052-10.67339-1.00108l-0.09135.18458,11.57212,4.3799a2.688,2.688,0,0,1-.73754.5821c-4.91945-1.76735-10.175-2.76367-14.57407-5.73129l-0.00381-.53928a6.52915,6.52915,0,0,1,1.75538-.245c3.17049,0.43828,6.32818.95064,9.6283,1.45905L76.637,45.95594Z"/><path d="M76.637,45.95594c-1.777-.29454-3.55993-0.564-5.32419-0.9136a1.77911,1.77911,0,0,1-.56482-0.764,1.70846,1.70846,0,0,1,.79052-0.36689c1.7382,0.6172,3.45151,1.29885,5.17239,1.96141Z"/><path d="M34.30719,53.1489c-1.155.76227-2.28282,1.5724-3.47185,2.27475-1.52415.90024-3.08795,1.73313-4.65575,2.55263a5.29836,5.29836,0,0,1-1.49335.46471,1.082,1.082,0,0,1-.34581-0.59574,3.72792,3.72792,0,0,0,.9592-1.10871,3.581,3.581,0,0,1,.83-1.321c2.27448-1.26023,4.60058-2.4235,6.91522-3.60722a5.56081,5.56081,0,0,0,1.81509-1.21136h-3.804c2.37883-.48158,4.74031-1.58451,7.44544-0.49606-4.02329,2.05426-7.74835,3.95627-11.4734,5.85824l0.24447,0.49836L34.11978,52.85Z"/><path d="M36.19355,49.07932c-2.55893.32045-4.86363,0.60905-7.16833,0.89762l-0.00653.3334q0.30819,0.01828.61693,0.03672c-0.92915.99164-3.553,1.34812-4.53843,0.42992,0.66533-.3568,1.26635-0.68395,1.87158-1.0027,1.16906-.61575,2.37947-1.16181,3.50038-1.85742C31.66815,47.17271,34.887,47.59271,36.19355,49.07932Z"/></g><text x="0" y="115" fill="#000000" font-size="5px" font-weight="bold" font-family="'Helvetica Neue', Helvetica, Arial-Unicode, Arial, Sans-serif">Created by Tatyana</text><text x="0" y="120" fill="#000000" font-size="5px" font-weight="bold" font-family="'Helvetica Neue', Helvetica, Arial-Unicode, Arial, Sans-serif">from the Noun Project</text></svg>